HIERARCHY
ROOT joint_Root
{
	OFFSET 0.0 0.0 0.0
	CHANNELS 6 Xposition Yposition Zposition Zrotation Xrotation Yrotation 
	JOINT Hips
	{
		OFFSET -0.726466 93.3139 -2.00062
		CHANNELS 6 Xposition Yposition Zposition Zrotation Xrotation Yrotation 
		JOINT Spine
		{
			OFFSET 15.7357 0.0 0.0
			CHANNELS 6 Xposition Yposition Zposition Zrotation Xrotation Yrotation 
			JOINT Chest
			{
				OFFSET 8.98455 -0.406207 0.0
				CHANNELS 6 Xposition Yposition Zposition Zrotation Xrotation Yrotation 
				JOINT Neck
				{
					OFFSET 16.3773 0.0 0.0
					CHANNELS 6 Xposition Yposition Zposition Zrotation Xrotation Yrotation 
					JOINT Head
					{
						OFFSET 6.45672 0.0 0.0
						CHANNELS 6 Xposition Yposition Zposition Zrotation Xrotation Yrotation 
						End Site
						{
							OFFSET 0.0 0.0 0.0
						}
					}
				}
				JOINT Shoulder_L
				{
					OFFSET 12.9942 -0.242716 4.98039
					CHANNELS 6 Xposition Yposition Zposition Zrotation Xrotation Yrotation 
					JOINT UpperArm_L
					{
						OFFSET 5.34809 0.0 0.0
						CHANNELS 6 Xposition Yposition Zposition Zrotation Xrotation Yrotation 
						JOINT LowerArm_L
						{
							OFFSET 24.3286 1.87007e-05 0.0
							CHANNELS 6 Xposition Yposition Zposition Zrotation Xrotation Yrotation 
							JOINT Hand_L
							{
								OFFSET 22.2916 0.0 0.0
								CHANNELS 6 Xposition Yposition Zposition Zrotation Xrotation Yrotation 
								End Site
								{
									OFFSET 0.0 0.0 0.0
								}
							}
						}
					}
				}
				JOINT Shoulder_R
				{
					OFFSET 12.9945 -0.242716 -4.98039
					CHANNELS 6 Xposition Yposition Zposition Zrotation Xrotation Yrotation 
					JOINT UpperArm_R
					{
						OFFSET -5.34813 0.0 0.0
						CHANNELS 6 Xposition Yposition Zposition Zrotation Xrotation Yrotation 
						JOINT LowerArm_R
						{
							OFFSET -24.3289 0.000322201 0.0
							CHANNELS 6 Xposition Yposition Zposition Zrotation Xrotation Yrotation 
							JOINT Hand_R
							{
								OFFSET -22.2915 -0.000108084 0.0
								CHANNELS 6 Xposition Yposition Zposition Zrotation Xrotation Yrotation 
								End Site
								{
									OFFSET 0.0 0.0 0.0
								}
							}
						}
					}
				}
			}
		}
		JOINT UpperLeg_L
		{
			OFFSET -2.19248 -6.46944 0.0
			CHANNELS 6 Xposition Yposition Zposition Zrotation Xrotation Yrotation 
			JOINT LowerLeg_L
			{
				OFFSET 39.0811 0.0 -1.23785e-05
				CHANNELS 6 Xposition Yposition Zposition Zrotation Xrotation Yrotation 
				JOINT Foot_L
				{
					OFFSET 40.9854 0.0 -1.26872e-05
					CHANNELS 6 Xposition Yposition Zposition Zrotation Xrotation Yrotation 
					JOINT Toes_L
					{
						OFFSET 11.7543 0.0 0.0
						CHANNELS 6 Xposition Yposition Zposition Zrotation Xrotation Yrotation 
						End Site
						{
							OFFSET 0.0 0.0 0.0
						}
					}
				}
			}
		}
		JOINT UpperLeg_R
		{
			OFFSET -2.19251 6.46944 0.0
			CHANNELS 6 Xposition Yposition Zposition Zrotation Xrotation Yrotation 
			JOINT LowerLeg_R
			{
				OFFSET -39.0811 -0.00228153 -0.0401928
				CHANNELS 6 Xposition Yposition Zposition Zrotation Xrotation Yrotation 
				JOINT Foot_R
				{
					OFFSET -40.9854 0.0 0.0
					CHANNELS 6 Xposition Yposition Zposition Zrotation Xrotation Yrotation 
					JOINT Toes_R
					{
						OFFSET -11.7543 0.0 0.0
						CHANNELS 6 Xposition Yposition Zposition Zrotation Xrotation Yrotation 
						End Site
						{
							OFFSET 0.0 0.0 0.0
						}
					}
				}
			}
		}
	}
}
MOTION
Frames:	9
Frame Time:	0.0333333
0.000000 0.000000 0.000000 0.000000 0.000000 -0.000000 -1.652210 92.007700 -1.807190 88.245000 -0.868451 7.271440 15.735700 0.000005 -0.000001 78.919300 86.633400 -78.276000 8.984550 -0.406207 -0.000000 -1.150540 -1.343820 1.272560 16.377300 -0.000001 -0.000001 3.586950 -1.023110 0.932051 6.456720 -0.000001 -0.000000 1.960740 -0.454659 -0.527218 12.994200 -0.242716 4.980390 -84.056600 -11.889400 -63.191800 5.348090 -0.000007 -0.000001 -50.366400 -56.226900 -82.757500 24.328600 0.000019 0.000005 8.257880 3.594230 -66.638100 22.291600 -0.000001 0.000005 19.751800 5.642630 -14.348500 12.994500 -0.242716 -4.980390 93.737400 -7.943100 -64.699900 -5.348130 -0.000001 -0.000004 -46.836400 -55.990400 -96.912500 -24.328900 0.000322 -0.000009 7.009870 5.584380 -51.646400 -22.291500 -0.000108 -0.000004 24.462300 5.630970 -13.409800 -2.192480 -6.469440 -0.000000 -168.792000 -19.606300 -0.483826 39.081100 -0.000007 -0.000012 -0.141555 0.326840 23.417700 40.985400 -0.000006 -0.000013 -5.405770 0.751561 -63.218300 11.754300 -0.000000 0.000003 -0.000170 -0.001614 -16.638700 -2.192510 6.469440 -0.000001 173.635000 22.425700 -178.554000 -39.081100 -0.002282 -0.040193 0.012722 -0.022953 22.281900 -40.985400 0.000008 0.000006 -1.108940 2.702750 -64.199400 -11.754300 -0.000006 -0.000006 -0.005298 -0.064321 -19.190400
0.000000 0.000000 0.000000 0.000000 0.000000 -0.000000 -1.686990 92.009300 -1.772690 88.213000 -0.842265 7.241020 15.735700 0.000005 -0.000001 79.129700 86.612300 -78.488500 8.984550 -0.406207 -0.000000 -1.104470 -1.327120 1.269130 16.377300 -0.000001 -0.000001 3.582620 -1.086110 0.958006 6.456720 -0.000001 -0.000000 1.987430 -0.594139 -0.477014 12.994200 -0.242716 4.980390 -84.059600 -11.891900 -63.208400 5.348090 -0.000007 -0.000001 -50.569300 -56.246900 -82.719100 24.328600 0.000019 0.000005 8.064240 3.461170 -66.921000 22.291600 -0.000001 0.000005 19.691400 5.642480 -14.335800 12.994500 -0.242716 -4.980390 93.741100 -7.923380 -64.622700 -5.348130 -0.000001 -0.000004 -46.632700 -56.061400 -96.581700 -24.328900 0.000322 -0.000009 7.067740 5.640310 -51.600800 -22.291500 -0.000108 -0.000004 24.386800 5.628850 -13.251000 -2.192480 -6.469440 -0.000000 -168.741000 -19.597000 -0.486090 39.081100 -0.000007 -0.000012 -0.141274 0.326514 23.397000 40.985400 -0.000006 -0.000013 -5.428140 0.791519 -63.218500 11.754300 -0.000000 0.000003 -0.000147 -0.001430 -16.632000 -2.192510 6.469440 -0.000001 173.686000 22.456400 -178.555000 -39.081100 -0.002282 -0.040193 0.012280 -0.021882 22.273500 -40.985400 0.000008 0.000006 -1.140080 2.696940 -64.181200 -11.754300 -0.000006 -0.000006 -0.005583 -0.066999 -19.299500
0.000000 0.000000 0.000000 0.000000 0.000000 -0.000000 -1.717950 92.008800 -1.747000 88.200700 -0.802016 7.191980 15.735700 0.000005 -0.000001 79.236300 86.594900 -78.608700 8.984550 -0.406207 -0.000000 -1.068130 -1.319980 1.242440 16.377300 -0.000001 -0.000001 3.588900 -1.167950 0.998678 6.456720 -0.000001 -0.000000 2.027460 -0.690343 -0.501937 12.994200 -0.242716 4.980390 -84.064000 -11.899900 -63.241000 5.348090 -0.000007 -0.000001 -50.969800 -56.249700 -82.776000 24.328600 0.000019 0.000005 7.850310 3.311220 -67.270300 22.291600 -0.000001 0.000005 19.607100 5.641230 -14.229000 12.994500 -0.242716 -4.980390 93.706800 -7.841710 -64.599200 -5.348130 -0.000001 -0.000004 -46.251100 -56.151800 -96.039100 -24.328900 0.000322 -0.000009 7.098360 5.663120 -51.610500 -22.291500 -0.000108 -0.000004 24.155800 5.627690 -13.165500 -2.192480 -6.469440 -0.000000 -168.735000 -19.540400 -0.530435 39.081100 -0.000007 -0.000012 -0.141050 0.326153 23.387000 40.985400 -0.000006 -0.000013 -5.458070 0.759755 -63.218700 11.754300 -0.000000 0.000003 -0.000159 -0.001527 -16.635500 -2.192510 6.469440 -0.000001 173.710000 22.580000 -178.564000 -39.081100 -0.002282 -0.040193 0.012905 -0.023430 22.255200 -40.985400 0.000008 0.000006 -1.050310 2.769000 -64.225400 -11.754300 -0.000006 -0.000006 -0.005442 -0.065681 -19.245800
0.000000 0.000000 0.000000 0.000000 0.000000 -0.000000 -1.752560 92.008500 -1.716720 88.177900 -0.765083 7.171330 15.735700 0.000005 -0.000001 79.113900 86.556200 -78.501500 8.984550 -0.406207 -0.000000 -0.994881 -1.347320 1.212740 16.377300 -0.000001 -0.000001 3.629400 -1.156980 0.970637 6.456720 -0.000001 -0.000000 2.074160 -0.696999 -0.454706 12.994200 -0.242716 4.980390 -84.069000 -11.894600 -63.250400 5.348090 -0.000007 -0.000001 -51.553900 -56.210500 -82.824300 24.328600 0.000019 0.000005 7.742250 3.181090 -67.796600 22.291600 -0.000001 0.000005 19.351200 5.638630 -14.010700 12.994500 -0.242716 -4.980390 93.676300 -7.785470 -64.624600 -5.348130 -0.000001 -0.000004 -46.091300 -56.091400 -95.463000 -24.328900 0.000322 -0.000009 7.117230 5.630130 -51.847400 -22.291500 -0.000108 -0.000004 23.850000 5.624990 -12.970300 -2.192480 -6.469440 -0.000000 -168.676000 -19.538800 -0.523116 39.081100 -0.000007 -0.000012 -0.143195 0.331496 23.362900 40.985400 -0.000006 -0.000013 -5.485190 0.818753 -63.210800 11.754300 -0.000000 0.000003 -0.000157 -0.001513 -16.635000 -2.192510 6.469440 -0.000001 173.743000 22.642300 -178.542000 -39.081100 -0.002282 -0.040193 0.012910 -0.023462 22.238100 -40.985400 0.000008 0.000006 -1.033720 2.811870 -64.244400 -11.754300 -0.000006 -0.000006 -0.005421 -0.065485 -19.237800
0.000000 0.000000 0.000000 0.000000 0.000000 -0.000000 -1.782920 92.005200 -1.683520 88.151500 -0.794772 7.130370 15.735700 0.000005 -0.000001 79.378300 86.516100 -78.769500 8.984550 -0.406207 -0.000000 -0.910304 -1.330140 1.206520 16.377300 -0.000001 -0.000001 3.706780 -1.153550 0.978807 6.456720 -0.000001 -0.000000 2.137650 -0.661487 -0.521071 12.994200 -0.242716 4.980390 -84.097300 -11.866900 -63.308400 5.348090 -0.000007 -0.000001 -52.369700 -56.006000 -82.673500 24.328600 0.000019 0.000005 7.668470 2.999680 -68.761300 22.291600 -0.000001 0.000005 19.192100 5.635850 -13.787800 12.994500 -0.242716 -4.980390 93.639500 -7.730450 -64.691700 -5.348130 -0.000001 -0.000004 -45.980700 -55.909300 -94.690000 -24.328900 0.000322 -0.000009 7.121220 5.509310 -52.463400 -22.291500 -0.000108 -0.000004 23.615500 5.617900 -12.472100 -2.192480 -6.469440 -0.000000 -168.622000 -19.581700 -0.525313 39.081100 -0.000007 -0.000012 -0.143401 0.331899 23.367500 40.985400 -0.000006 -0.000013 -5.511490 0.848425 -63.235900 11.754300 -0.000000 0.000003 -0.000152 -0.001465 -16.633200 -2.192510 6.469440 -0.000001 173.783000 22.765200 -178.541000 -39.081100 -0.002282 -0.040193 0.013679 -0.025379 22.209200 -40.985400 0.000008 0.000006 -0.915866 2.908310 -64.306400 -11.754300 -0.000006 -0.000006 -0.005346 -0.064774 -19.208800
0.000000 0.000000 0.000000 0.000000 0.000000 -0.000000 -1.788850 92.006900 -1.649950 88.128100 -0.858179 7.082190 15.735700 0.000005 -0.000001 80.023300 86.465800 -79.421900 8.984550 -0.406207 -0.000000 -0.797651 -1.269240 1.193430 16.377300 -0.000001 -0.000001 3.742690 -1.154750 1.040280 6.456720 -0.000001 -0.000000 2.144060 -0.662290 -0.515223 12.994200 -0.242716 4.980390 -84.134600 -11.869700 -63.460400 5.348090 -0.000007 -0.000001 -53.052200 -55.697300 -81.870100 24.328600 0.000019 0.000005 7.797190 2.797920 -70.380000 22.291600 -0.000001 0.000005 19.548000 5.636530 -13.841600 12.994500 -0.242716 -4.980390 93.584400 -7.636640 -64.762000 -5.348130 -0.000001 -0.000004 -45.693800 -55.656500 -93.358700 -24.328900 0.000322 -0.000009 7.016830 5.163430 -53.831600 -22.291500 -0.000108 -0.000004 22.676400 5.599380 -11.295500 -2.192480 -6.469440 -0.000000 -168.584000 -19.666900 -0.527024 39.081100 -0.000007 -0.000012 -0.144349 0.334304 23.354300 40.985400 -0.000006 -0.000013 -5.525440 0.852153 -63.249500 11.754300 -0.000000 0.000003 -0.000159 -0.001523 -16.635400 -2.192510 6.469440 -0.000001 173.805000 22.822700 -178.557000 -39.081100 -0.002282 -0.040193 0.014077 -0.026384 22.185700 -40.985400 0.000008 0.000006 -0.855927 3.035080 -64.305400 -11.754300 -0.000006 -0.000006 -0.005264 -0.063993 -19.177000
0.000000 0.000000 0.000000 0.000000 0.000000 -0.000000 -1.800330 92.005400 -1.629500 88.090700 -0.906594 7.056020 15.735700 0.000005 -0.000001 80.475400 86.388200 -79.873000 8.984550 -0.406207 -0.000000 -0.635128 -1.239210 1.197340 16.377300 -0.000001 -0.000001 3.764570 -1.195700 1.170640 6.456720 -0.000001 -0.000000 2.000990 -0.677350 -0.572545 12.994200 -0.242716 4.980390 -84.215500 -11.801500 -63.650000 5.348090 -0.000007 -0.000001 -53.582900 -55.213000 -80.348700 24.328600 0.000019 0.000005 7.418860 2.307750 -72.818000 22.291600 -0.000001 0.000005 20.034200 5.639000 -14.043000 12.994500 -0.242716 -4.980390 93.519700 -7.521710 -64.831800 -5.348130 -0.000001 -0.000004 -45.159400 -55.228800 -91.346900 -24.328900 0.000322 -0.000009 7.068130 4.776260 -56.121500 -22.291500 -0.000108 -0.000004 21.418400 5.580180 -10.211900 -2.192480 -6.469440 -0.000000 -168.560000 -19.596200 -0.549528 39.081100 -0.000007 -0.000012 -0.142956 0.330679 23.379500 40.985400 -0.000006 -0.000013 -5.563630 0.726524 -63.284400 11.754300 -0.000000 0.000003 -0.000160 -0.001531 -16.635700 -2.192510 6.469440 -0.000001 173.874000 22.826400 -178.569000 -39.081100 -0.002282 -0.040193 0.016719 -0.032866 22.183700 -40.985400 0.000008 0.000006 -0.646346 3.038200 -64.363800 -11.754300 -0.000006 -0.000006 -0.005513 -0.066346 -19.272900
0.000000 0.000000 0.000000 0.000000 0.000000 -0.000000 -1.797160 92.002500 -1.618310 88.069000 -0.924124 7.029470 15.735700 0.000005 -0.000001 81.039000 86.294800 -80.438800 8.984550 -0.406207 -0.000000 -0.439442 -1.196970 1.195010 16.377300 -0.000001 -0.000001 3.741950 -1.244160 1.271260 6.456720 -0.000001 -0.000000 1.816650 -0.718704 -0.576983 12.994200 -0.242716 4.980390 -84.316300 -11.740300 -63.935600 5.348090 -0.000007 -0.000001 -53.813100 -54.480800 -77.876200 24.328600 0.000019 0.000005 6.657930 1.649460 -76.151500 22.291600 -0.000001 0.000005 20.564000 5.639830 -14.110700 12.994500 -0.242716 -4.980390 93.405400 -7.287320 -64.867500 -5.348130 -0.000001 -0.000004 -43.849600 -54.604400 -88.228400 -24.328900 0.000322 -0.000009 7.190120 4.281320 -59.390200 -22.291500 -0.000108 -0.000004 20.192200 5.558530 -9.109340 -2.192480 -6.469440 -0.000000 -168.550000 -19.558500 -0.577787 39.081100 -0.000007 -0.000012 -0.143744 0.332052 23.407800 40.985400 -0.000006 -0.000013 -5.572420 0.710427 -63.316400 11.754300 -0.000000 0.000003 -0.000166 -0.001586 -16.637700 -2.192510 6.469440 -0.000001 173.886000 22.920900 -178.600000 -39.081100 -0.002282 -0.040193 0.017182 -0.033967 22.203500 -40.985400 0.000008 0.000006 -0.640522 3.112540 -64.356200 -11.754300 -0.000006 -0.000006 -0.005624 -0.067381 -19.315100
0.000000 0.000000 0.000000 0.000000 0.000000 -0.000000 -1.804510 92.002400 -1.619820 88.043700 -0.912057 7.001710 15.735700 0.000005 -0.000001 81.433400 86.203500 -80.856200 8.984550 -0.406207 -0.000000 -0.251465 -1.171170 1.151150 16.377300 -0.000001 -0.000001 3.661080 -1.280690 1.356640 6.456720 -0.000001 -0.000000 1.751340 -0.641116 -0.466371 12.994200 -0.242716 4.980390 -84.462200 -11.642600 -64.339000 5.348090 -0.000007 -0.000001 -53.612100 -53.521700 -74.500700 24.328600 0.000019 0.000005 6.023240 1.039190 -80.250400 22.291600 -0.000001 0.000005 20.511500 5.639990 -14.124800 12.994500 -0.242716 -4.980390 93.191900 -6.862520 -64.980600 -5.348130 -0.000001 -0.000004 -41.451700 -53.653300 -83.672300 -24.328900 0.000322 -0.000009 6.821590 3.398180 -63.650500 -22.291500 -0.000108 -0.000004 19.363100 5.542270 -8.343840 -2.192480 -6.469440 -0.000000 -168.524000 -19.598000 -0.630723 39.081100 -0.000007 -0.000012 -0.144758 0.334028 23.430600 40.985400 -0.000006 -0.000013 -5.566960 0.747641 -63.308800 11.754300 -0.000000 0.000003 -0.000164 -0.001566 -16.636900 -2.192510 6.469440 -0.000001 173.924000 23.029200 -178.610000 -39.081100 -0.002282 -0.040193 0.018696 -0.037726 22.177400 -40.985400 0.000008 0.000006 -0.498145 3.151630 -64.394200 -11.754300 -0.000006 -0.000006 -0.005497 -0.066192 -19.266600
